<?xml version="1.0" encoding="UTF-8" standalone="no"?>
<svg
   viewBox="0 0 64 64"
   version="1.1"
   id="svg10"
   sodipodi:docname="cook-exp.svg"
   inkscape:version="1.2.2 (732a01da63, 2022-12-09)"
   xmlns:inkscape="http://www.inkscape.org/namespaces/inkscape"
   xmlns:sodipodi="http://sodipodi.sourceforge.net/DTD/sodipodi-0.dtd"
   xmlns="http://www.w3.org/2000/svg"
   xmlns:svg="http://www.w3.org/2000/svg">
  <sodipodi:namedview
     id="namedview12"
     pagecolor="#ffffff"
     bordercolor="#000000"
     borderopacity="0.25"
     inkscape:showpageshadow="2"
     inkscape:pageopacity="0.0"
     inkscape:pagecheckerboard="0"
     inkscape:deskcolor="#d1d1d1"
     showgrid="false"
     inkscape:zoom="3.6875"
     inkscape:cx="30.915254"
     inkscape:cy="32.135593"
     inkscape:window-width="1280"
     inkscape:window-height="945"
     inkscape:window-x="-9"
     inkscape:window-y="-9"
     inkscape:window-maximized="1"
     inkscape:current-layer="svg10" />
  <defs
     id="defs2" />
  <path
     fill="#a91024"
     d="M58.89 42.62a11.3 11.3 0 01-10.06 1.44 1 1 0 00-.91.12l-4.5 3.2L44.58 49l4.08-2.9A13.37 13.37 0 0060 44.27a14.2 14.2 0 001.67-1.32l-1.35-1.47a12.05 12.05 0 01-1.43 1.14z"
     class="active-path"
     data-old_color="#000000"
     data-original="#000000"
     id="path4"
     style="fill:#95ce16;fill-opacity:1" />
  <path
     fill="#a91024"
     d="M48.82 27.7a9.1 9.1 0 00-4.14 8.67L32 44.48l-12.68-8.12a9.05 9.05 0 00-4.14-8.67 9.56 9.56 0 00-6.52-1.63 7.4 7.4 0 00-6.38 9.46 9.55 9.55 0 003.95 5.43 9.05 9.05 0 009.6.6l9.84 6.98-9.37 6a3.92 3.92 0 00-1.14 5.51 3.93 3.93 0 005.53 1L32 53.03l11.31 8.03a3.93 3.93 0 104.39-6.52l-9.38-6 9.85-6.99a9.05 9.05 0 009.6-.59c4.11-2.77 5.45-8 3-11.67s-7.83-4.37-11.95-1.6zM19.53 59.42a1.97 1.97 0 01-2.71-.5 1.92 1.92 0 01.56-2.7l10.05-6.44 2.84 2.01zm27.94-1.97a1.93 1.93 0 01-3 1.97l-28.05-19.9a1 1 0 00-1.16 0 6.93 6.93 0 01-7.91-.23 7.56 7.56 0 01-3.14-4.29 5.4 5.4 0 014.7-6.96 7.56 7.56 0 015.15 1.3 6.93 6.93 0 013.18 7.25 1 1 0 00.43 1.09l28.95 18.54a1.91 1.91 0 01.85 1.23zm9.18-18.16a6.93 6.93 0 01-7.91.23 1 1 0 00-1.17 0l-11.06 7.85-2.65-1.7 12.47-8a1 1 0 00.43-1.09 6.96 6.96 0 013.18-7.25c3.2-2.15 7.31-1.68 9.16 1.06s.75 6.74-2.45 8.9zM12.93 3.83l-1.11-1.66a13 13 0 00-5.08 15.16l1.89-.66a11 11 0 014.3-12.84zM10.75 20.27a11.13 11.13 0 01-1.27-1.77l-1.74 1a13.12 13.12 0 001.51 2.09z"
     class="active-path"
     data-old_color="#000000"
     data-original="#000000"
     id="path6"
     style="fill:#95ce16;fill-opacity:1" />
  <path
     fill="#a91024"
     d="M42.98 36.2l2.85-14.23A9 9 0 0045 4a8.89 8.89 0 00-5.57 1.94 8.99 8.99 0 00-14.86 0A8.89 8.89 0 0019 4a9 9 0 00-.83 17.96l2.85 14.24 1.96-.4-.56-2.8h19.16l-.56 2.8zM38.15 31l.84-5.86-1.98-.28-.88 6.14H33V20h-2v11h-3.13l-.88-6.14-1.98.28.84 5.86h-3.83l-2.04-10.2A1 1 0 0019 20a7 7 0 010-14 6.93 6.93 0 015.08 2.2 1 1 0 001.63-.25 6.99 6.99 0 0112.58 0 1 1 0 001.63.25A6.93 6.93 0 0145 6a7 7 0 010 14 1 1 0 00-.98.8L41.98 31z"
     class="active-path"
     data-old_color="#000000"
     data-original="#000000"
     id="path8"
     style="fill:#95ce16;fill-opacity:1" />
</svg>
