<svg xmlns="http://www.w3.org/2000/svg" viewBox="0 0 6.88 5.29">
  <defs/>
  <path fill="#fff" d="M6.47 0H2.06c-.25 0-.44.27-.44.6v2.2c0 .08.05.15.1.15.2 0 .3-.1.39-.18.07-.06.13-.12.25-.12.13 0 .18.06.26.12.08.08.18.18.38.18.19 0 .3-.1.38-.18.07-.06.13-.12.25-.12.13 0 .18.06.26.12l.04.05V4.3l-.69.26c-.05.02-.08.08-.08.14v.44c0 .08.05.15.11.15h1.98c.07 0 .12-.07.12-.15v-.44c0-.06-.04-.12-.08-.14l-.7-.26V2.82l.05-.05c.08-.06.14-.12.26-.12s.18.06.25.12c.09.08.19.18.38.18.2 0 .3-.1.38-.18.07-.06.13-.12.25-.12.13 0 .19.06.26.12.08.08.19.18.38.18.06 0 .1-.07.1-.15V.6c0-.33-.19-.6-.43-.6z"/>
</svg>
