<svg width="547" height="543" viewBox="0 0 547 543" fill="none" xmlns="http://www.w3.org/2000/svg">
<path d="M251 24C251 10.7 240.3 0 227 0C213.7 0 203 10.7 203 24V64H163C127.7 64 99 92.7 99 128V144V192V448C99 483.3 127.7 512 163 512H483C518.3 512 547 483.3 547 448V192V144V128C547 92.7 518.3 64 483 64H443V24C443 10.7 432.3 0 419 0C405.7 0 395 10.7 395 24V64H251V24ZM147 192H227V248H147V192ZM147 296H227V360H147V296ZM275 296H371V360H275V296ZM419 296H499V360H419V296ZM499 248H419V192H499V248ZM499 408V448C499 456.8 491.8 464 483 464H419V408H499ZM371 408V464H275V408H371ZM227 408V464H163C154.2 464 147 456.8 147 448V408H227ZM371 248H275V192H371V248Z" fill="#F0F3F7"/>
<line x1="0.5" y1="31" x2="0.499978" y2="543" stroke="#F0F3F7"/>
</svg>
