<?xml version="1.0" encoding="UTF-8" standalone="no"?>
<svg
   viewBox="0 -21 101.97 94.73"
   version="1.1"
   id="svg6"
   sodipodi:docname="hand-dish.svg"
   inkscape:version="1.2.2 (732a01da63, 2022-12-09)"
   xmlns:inkscape="http://www.inkscape.org/namespaces/inkscape"
   xmlns:sodipodi="http://sodipodi.sourceforge.net/DTD/sodipodi-0.dtd"
   xmlns="http://www.w3.org/2000/svg"
   xmlns:svg="http://www.w3.org/2000/svg">
  <sodipodi:namedview
     id="namedview8"
     pagecolor="#ffffff"
     bordercolor="#000000"
     borderopacity="0.25"
     inkscape:showpageshadow="2"
     inkscape:pageopacity="0.0"
     inkscape:pagecheckerboard="0"
     inkscape:deskcolor="#d1d1d1"
     showgrid="false"
     inkscape:zoom="2.4912909"
     inkscape:cx="50.977588"
     inkscape:cy="47.565702"
     inkscape:window-width="1280"
     inkscape:window-height="945"
     inkscape:window-x="-9"
     inkscape:window-y="-9"
     inkscape:window-maximized="1"
     inkscape:current-layer="svg6" />
  <defs
     id="defs2" />
  <path
     fill="#a91024"
     d="M97.2 27.14h-3.5a42.33 42.33 0 00-3.87-15.31 1.48 1.48 0 10-2.68 1.24 39.4 39.4 0 013.59 14.07H23.08a1.48 1.48 0 100 2.95H97.2c.75 0 1.36.6 1.36 1.36v1.8c0 .75-.6 1.35-1.36 1.35H4.85c-.75 0-1.35-.6-1.35-1.35v-1.8c0-.75.6-1.36 1.35-1.36H16.2a1.48 1.48 0 100-2.95h-4.88A39.57 39.57 0 0123.27 1.29 39.56 39.56 0 0148.37-9.9h.02l1.19-.06h.23a27.18 27.18 0 012.28 0h.3l.82.04.43.02c12.13.8 23.28 7.1 30.22 17.22a1.48 1.48 0 002.44-1.68A42.79 42.79 0 0057.08-12.5a7.2 7.2 0 001.15-3.9c0-.8-.36-2.28-2.75-3.17-1.2-.44-2.78-.68-4.45-.68-1.67 0-3.25.24-4.45.68-2.4.89-2.76 2.37-2.76 3.17 0 1.4.41 2.75 1.15 3.89A42.5 42.5 0 0021.2-.82 42.5 42.5 0 008.36 27.14h-3.5a4.31 4.31 0 00-4.32 4.3v1.8c0 2.39 1.94 4.32 4.31 4.32h15.91a18.3 18.3 0 00-2.27 1.83l-.02.03-.13.13-7.02 8.52a4.05 4.05 0 00-5.55 1.15L3 53.3a4.09 4.09 0 001.08 5.66l18.87 12.82a4.05 4.05 0 005.67-1.08l2.76-4.07a4.09 4.09 0 00-1.08-5.66l-.11-.08a9.55 9.55 0 014.97-3c4.01-.93 8.74-.33 11.94.2 3.96.66 8.13.44 12.04-.65l5.44-1.5a28 28 0 009.97-5.07l9.34-8.27c1.6-1.21 1.94-3.32 1.39-5.03H97.2c2.38 0 4.31-1.93 4.31-4.31v-1.8c0-2.38-1.93-4.31-4.3-4.31zM51.03-17.3c2.48 0 3.98.62 4.25.96a4.25 4.25 0 01-1.88 3.47l-.87-.04-.29-.01a40.86 40.86 0 00-3.58.05 4.25 4.25 0 01-1.88-3.47c.27-.34 1.76-.96 4.25-.96zm10.59 55.57a4.87 4.87 0 00-.4-.71H75.4l-6.13 4.05-8.73 2.53h-.3a5.02 5.02 0 001.38-5.87zm-16.02-.71l-2.13.44-1.65-.44zm-16.65 27.4l-2.76 4.07a1.12 1.12 0 01-1.57.3L5.75 56.5a1.13 1.13 0 01-.3-1.56l2.76-4.07a1.12 1.12 0 011.57-.3l1.01.7L28.66 63.4c.51.35.64 1.05.3 1.56zm53.14-24.7l-.1.08-9.35 8.28a25.07 25.07 0 01-8.84 4.46l-5.44 1.5c-3.5.97-7.22 1.18-10.77.59-3.45-.57-8.56-1.21-13.09-.16-2.62.6-5.01 2.1-6.76 4.2l-13.96-9.48 6.78-8.23a13.9 13.9 0 018.92-3.94h.06c.97-.02 2 .27 3.07.57l.65.18 9.78 2.64c.23.06.46.06.69.02l12.8-2.67c.59-.12 1.2 0 1.68.32.31.21.56.5.7.84.45 1 .03 2.17-.95 2.67l-4.37 2.32a1.48 1.48 0 00.72 2.78l6.49-.14c.12 0 .25-.02.37-.06l9.14-2.64c.14-.04.28-.1.4-.19l9.22-6.1c.77-.48 1.8-.87 2.35-.06.43.63.44 1.76-.2 2.22zm0 0"
     id="path4"
     style="fill:#95ce16;fill-opacity:1" />
</svg>
